<?xml version="1.0" standalone="no"?><!DOCTYPE svg PUBLIC "-//W3C//DTD SVG 1.1//EN" "http://www.w3.org/Graphics/SVG/1.1/DTD/svg11.dtd"><svg class="icon" width="200px" height="200.00px" viewBox="0 0 1024 1024" version="1.1" xmlns="http://www.w3.org/2000/svg"><path d="M155.9 1024c-12.6 0-25.4-3.1-37.2-9.5-10.5-5.8-19.4-13.7-26.5-23.5-18.6-26-28.4-56.6-28.4-88.5V152.8C63.8 68.5 132.3 0 216.5 0h590.9c84.2 0 152.8 68.5 152.8 152.8v749.7c0 31-9.3 60.9-26.9 86.4-0.6 0.9-1.2 1.7-1.8 2.5-16 21.4-41.6 33.1-68.5 31.2-27.3-1.9-51.4-17.4-64.5-41.4L750.9 894l-51.8 90c-13.2 23.5-37.8 38.7-64.2 39.7-2.1 0.1-4.2 0.1-6.2 0-26.4-1-51-16.2-64.2-39.7L512 893l-51.9 90.4c-13.8 24.5-39.5 39.8-67.1 39.9-1.1 0-2.2 0-3.3-0.1-26.4-1-51-16.2-64.2-39.8L274.1 894l-48.6 88.6c-14.4 26.4-41.6 41.4-69.6 41.4z m60.6-959.7c-48.8 0-88.4 39.7-88.4 88.4v749.7c0 18.4 5.7 36.1 16.4 51.1 1.4 1.9 3 3.4 5 4.5 6.7 3.7 15.7 0.8 19.6-6.4L242 818.9c7.1-13 21.7-20.4 36.2-18.6 1.5 0.2 3.1 0.5 4.6 0.9 9.2 2.4 17.3 8.7 22 17.1l76.7 133.6c2.3 4.2 6.4 6.9 10.6 7h0.6c4.5 0 8.9-2.8 11.3-7.1l0.2-0.4 76.5-133.2c4.8-8.4 12.8-14.6 22-17.1 6.1-1.6 12.5-1.6 18.5 0 9.2 2.4 17.2 8.6 22 17l77.3 134.2c2.3 4.2 6.4 6.8 10.6 7h1.3c4.2-0.2 8.3-2.8 10.6-7l0.2-0.4 77.1-133.8c4.8-8.4 12.8-14.6 22-17 1.5-0.4 3-0.7 4.5-0.9 14.6-1.9 29.2 5.6 36.4 18.6l71.7 131.4c3.7 6.7 10 7.9 12.6 8 2.9 0.2 8.4-0.2 12.4-5.5 0.1-0.2 0.3-0.4 0.4-0.5 10.2-14.8 15.6-32 15.6-49.9V152.8c0-48.8-39.7-88.4-88.4-88.4h-591z"  /><path d="M544.8 254.1H287.2c-17.6 0-32-14.4-32-32v-0.3c0-17.6 14.4-32 32-32h257.6c17.6 0 32 14.4 32 32v0.3c0 17.6-14.4 32-32 32zM738.4 447.7H287.2c-17.6 0-32-14.4-32-32v-0.3c0-17.6 14.4-32 32-32h451.2c17.6 0 32 14.4 32 32v0.3c0 17.6-14.4 32-32 32zM544.8 643.1H287.2c-17.6 0-32-14.4-32-32v-0.3c0-17.6 14.4-32 32-32h257.6c17.6 0 32 14.4 32 32v0.3c0 17.6-14.4 32-32 32z"  /></svg>