<?xml version="1.0" standalone="no"?><!DOCTYPE svg PUBLIC "-//W3C//DTD SVG 1.1//EN" "http://www.w3.org/Graphics/SVG/1.1/DTD/svg11.dtd"><svg class="icon" width="200px" height="200.00px" viewBox="0 0 1024 1024" version="1.1" xmlns="http://www.w3.org/2000/svg"><path d="M906.24 947.2H117.76c-51.2 0-92.16-40.96-92.16-87.04v-148.48H51.2c56.32 0 107.52-46.08 107.52-97.28s-51.2-97.28-107.52-97.28H25.6V368.64c0-46.08 40.96-87.04 92.16-87.04h788.48c51.2 0 92.16 40.96 92.16 87.04v148.48H972.8c-56.32 0-107.52 46.08-107.52 97.28s46.08 97.28 107.52 97.28h25.6v148.48c0 46.08-40.96 87.04-92.16 87.04zM76.8 762.88v97.28c0 20.48 20.48 35.84 40.96 35.84h788.48c20.48 0 40.96-15.36 40.96-35.84v-97.28c-76.8-10.24-133.12-71.68-133.12-148.48s56.32-133.12 133.12-148.48V368.64c0-20.48-20.48-35.84-40.96-35.84H117.76c-20.48 0-40.96 15.36-40.96 35.84v97.28c76.8 15.36 133.12 76.8 133.12 148.48S153.6 747.52 76.8 762.88z"  /><path d="M593.92 578.56c-10.24 0-15.36-5.12-20.48-10.24L496.64 455.68c-5.12-15.36-5.12-30.72 10.24-35.84 10.24-10.24 25.6-5.12 35.84 5.12l76.8 112.64c10.24 10.24 5.12 25.6-5.12 35.84-10.24 5.12-15.36 5.12-20.48 5.12z"  /><path d="M604.16 578.56c-5.12 0-10.24 0-15.36-5.12-10.24-10.24-15.36-25.6-5.12-35.84l76.8-112.64c5.12-10.24 20.48-15.36 30.72-5.12 10.24 10.24 15.36 25.6 5.12 35.84l-76.8 112.64c0 5.12-5.12 10.24-15.36 10.24z"  /><path d="M727.04 609.28h-256c-15.36 0-25.6-10.24-25.6-25.6s10.24-25.6 25.6-25.6h256c15.36 0 25.6 10.24 25.6 25.6s-10.24 25.6-25.6 25.6zM727.04 727.04h-256c-15.36 0-25.6-10.24-25.6-25.6s10.24-25.6 25.6-25.6h256c15.36 0 25.6 10.24 25.6 25.6s-10.24 25.6-25.6 25.6z"  /><path d="M599.04 834.56c-15.36 0-25.6-10.24-25.6-25.6v-225.28c0-15.36 10.24-25.6 25.6-25.6s25.6 10.24 25.6 25.6v225.28c0 10.24-10.24 25.6-25.6 25.6zM870.4 230.4c-15.36 0-25.6-10.24-25.6-25.6V143.36c0-5.12-10.24-15.36-25.6-15.36H204.8c-15.36 0-25.6 10.24-25.6 15.36V204.8c0 15.36-10.24 25.6-25.6 25.6s-25.6-10.24-25.6-25.6V143.36c0-35.84 35.84-66.56 76.8-66.56h614.4c40.96 0 76.8 30.72 76.8 66.56V204.8c0 15.36-10.24 25.6-25.6 25.6zM332.8 890.88c-15.36 0-25.6-10.24-25.6-25.6v-51.2c0-15.36 10.24-25.6 25.6-25.6s25.6 10.24 25.6 25.6v51.2c0 10.24-10.24 25.6-25.6 25.6z m0-153.6c-15.36 0-25.6-10.24-25.6-25.6v-51.2c0-15.36 10.24-25.6 25.6-25.6s25.6 10.24 25.6 25.6v51.2c0 10.24-10.24 25.6-25.6 25.6z m0-153.6c-15.36 0-25.6-10.24-25.6-25.6v-51.2c0-15.36 10.24-25.6 25.6-25.6s25.6 10.24 25.6 25.6v51.2c0 10.24-10.24 25.6-25.6 25.6z m0-153.6c-15.36 0-25.6-15.36-25.6-25.6v-51.2c0-15.36 10.24-25.6 25.6-25.6s25.6 10.24 25.6 25.6v51.2c0 10.24-10.24 25.6-25.6 25.6z"  /></svg>