<?xml version="1.0" standalone="no"?><!DOCTYPE svg PUBLIC "-//W3C//DTD SVG 1.1//EN" "http://www.w3.org/Graphics/SVG/1.1/DTD/svg11.dtd"><svg class="icon" width="300px" height="300.00px" viewBox="0 0 1024 1024" version="1.1" xmlns="http://www.w3.org/2000/svg"><path d="M921.09090869 544.72727305h-405a36.81818174 36.81818174 0 0 1-36.81818174-36.81818174V102.90909131a32.72727305 32.72727305 0 0 1 32.72727305-32.72727305C756.02272695 70.18181826 953.81818174 267.97727305 953.81818174 512a32.72727305 32.72727305 0 0 1-32.72727305 32.72727305z m-34.11818174-65.4545461A376.44545479 376.44545479 0 0 0 544.72727305 137.02727305V479.27272695h342.2454539zM394.95909131 85.85a32.72727305 32.72727305 0 0 1 17.30454521 63.12272695A376.52727305 376.52727305 0 0 0 135.63636347 512a376.36363653 376.36363653 0 0 0 376.36363653 376.36363653 376.52727305 376.52727305 0 0 0 363.92727305-280.06363653 32.72727305 32.72727305 0 1 1 63.28636347 16.69090869A441.98181826 441.98181826 0 0 1 512 953.81818174C267.97727305 953.81818174 70.18181826 756.02272695 70.18181826 512 70.18181826 311.75 204.56818174 138.05 394.95909131 85.85z" /></svg>