<?xml version="1.0" standalone="no"?><!DOCTYPE svg PUBLIC "-//W3C//DTD SVG 1.1//EN" "http://www.w3.org/Graphics/SVG/1.1/DTD/svg11.dtd"><svg class="icon" width="300px" height="300.00px" viewBox="0 0 1024 1024" version="1.1" xmlns="http://www.w3.org/2000/svg"><path d="M99.5 571c-2.8-19.5-4.2-39.4-4.2-59.2 0-56.2 11-110.8 32.7-162.1 21-49.6 51-94.1 89.3-132.4C255.6 179 300.1 149 349.7 128c51.3-21.7 105.9-32.7 162.1-32.7 80.3 0 158.3 22.9 225.5 66.2 65.5 42.2 117.7 101.7 151 171.9 5.5 11.5 17 18.3 28.9 18.3 4.6 0 9.3-1 13.7-3.1 16-7.6 22.8-26.7 15.2-42.6-38.4-81-98.7-149.5-174.1-198.2-77.5-50-167.5-76.5-260.2-76.5-64.9 0-127.8 12.7-187 37.8-57.2 24.2-108.6 58.8-152.7 103-44.1 44.1-78.8 95.5-103 152.7C44 384.1 31.3 447 31.3 511.8c0 22.8 1.6 45.8 4.8 68.2 2.3 16 16 27.5 31.6 27.5 1.5 0 3-0.1 4.5-0.3 17.6-2.5 29.8-18.7 27.3-36.2z m884.1-150.7c-3.3-17.4-20.1-28.7-37.5-25.4-17.4 3.3-28.7 20.1-25.4 37.5 5 26 7.6 52.7 7.6 79.4 0 56.2-11 110.8-32.7 162.1-21 49.6-51 94.1-89.3 132.4s-82.8 68.3-132.4 89.3c-51.3 21.7-105.9 32.7-162.1 32.7-80.9 0-159.4-23.2-226.9-67.2-65.8-42.8-118-103-151-174-7.5-16-26.5-23-42.5-15.5-16 7.4-23 26.5-15.5 42.5C114 796 174.2 865.4 250.1 914.8c77.9 50.7 168.4 77.5 261.8 77.5 64.9 0 127.8-12.7 187-37.8 57.2-24.2 108.6-58.8 152.7-103s78.8-95.5 103-152.7c25.1-59.3 37.8-122.2 37.8-187 0-30.7-3-61.5-8.8-91.5z"  /><path d="M673.2 511.7c17.8 0 32.2-14.4 32.2-32.2 0-17.8-14.4-32.2-32.2-32.2H544.7v-1.4-0.2c3.8-1.6 7.4-3.9 10.5-7l126.2-126.2c12.6-12.6 12.6-33 0-45.6-12.6-12.6-33-12.6-45.6 0L514.5 388.3l-121-121c-12.6-12.6-33-12.6-45.6 0-12.6 12.6-12.6 33 0 45.6L474 439c1.9 1.9 4.1 3.6 6.3 4.9 0 0.7-0.1 1.4-0.1 2.1v1.4H353.5c-17.8 0-32.2 14.4-32.2 32.2 0 17.8 14.4 32.2 32.2 32.2h126.7v65H352.8c-17.8 0-32.2 14.4-32.2 32.2 0 17.8 14.4 32.2 32.2 32.2h127.4v128.4c0 16.5 13.4 29.8 29.8 29.8h4.8c16.5 0 29.8-13.4 29.8-29.8V641.2h128.5c17.8 0 32.2-14.4 32.2-32.2 0-17.8-14.4-32.2-32.2-32.2H544.7v-65h128.5z"  /></svg>