<?xml version="1.0" standalone="no"?><!DOCTYPE svg PUBLIC "-//W3C//DTD SVG 1.1//EN" "http://www.w3.org/Graphics/SVG/1.1/DTD/svg11.dtd"><svg class="icon" width="300px" height="300.00px" viewBox="0 0 1024 1024" version="1.1" xmlns="http://www.w3.org/2000/svg"><path d="M955.857017 51.16531c7.020904 0 12.732999 6.144954 12.732999 13.697977l0 847.8757c0 7.553023-5.712095 13.697977-12.732999 13.697977L63.940265 926.436964c-7.020904 0-12.732999-6.144954-12.732999-13.697977L51.207265 64.863287c0-7.553023 5.712095-13.697977 12.732999-13.697977L955.857017 51.16531M955.857017 0 63.940265 0c-35.289738 0-63.898309 29.040407-63.898309 64.863287l0 847.8757c0 35.82288 28.608571 64.863287 63.898309 64.863287l891.916752 0c35.289738 0 63.898309-29.040407 63.898309-64.863287L1019.755326 64.863287C1019.755326 29.040407 991.146755 0 955.857017 0L955.857017 0z"  /><path d="M962.039833 291.2442 742.758618 291.2442 742.758618 179.566702 677.584246 179.566702 677.584246 291.2442 397.881916 291.2442 397.881916 179.566702 332.708568 179.566702 332.708568 291.2442 228.15942 291.2442 228.15942 179.566702 162.986071 179.566702 162.986071 291.2442 53.68469 291.2442 53.68469 356.417549 162.986071 356.417549 162.986071 468.095048 228.15942 468.095048 228.15942 356.417549 332.708568 356.417549 332.708568 468.095048 397.881916 468.095048 397.881916 356.417549 677.584246 356.417549 677.584246 468.095048 742.758618 468.095048 742.758618 356.417549 962.039833 356.417549Z"  /><path d="M962.039833 634.761951 692.520423 634.761951 692.520423 523.084453 627.347075 523.084453 627.347075 634.761951 332.708568 634.761951 332.708568 523.084453 267.535219 523.084453 267.535219 634.761951 53.68469 634.761951 53.68469 699.9353 267.535219 699.9353 267.535219 811.613822 332.708568 811.613822 332.708568 699.9353 627.347075 699.9353 627.347075 811.613822 692.520423 811.613822 692.520423 699.9353 962.039833 699.9353Z"  /></svg>