<?xml version="1.0" standalone="no"?><!DOCTYPE svg PUBLIC "-//W3C//DTD SVG 1.1//EN" "http://www.w3.org/Graphics/SVG/1.1/DTD/svg11.dtd"><svg class="icon" width="300px" height="300.00px" viewBox="0 0 1024 1024" version="1.1" xmlns="http://www.w3.org/2000/svg"><path d="M841.728 997.888h-655.36c-59.392 0-107.52-48.128-107.52-107.52v-757.76c0-59.392 48.128-107.52 107.52-107.52h655.36c59.392 0 107.52 48.128 107.52 107.52v757.76c0 59.392-48.64 107.52-107.52 107.52z m-655.36-921.6c-31.232 0-56.32 25.088-56.32 56.32v757.76c0 31.232 25.088 56.32 56.32 56.32h655.36c31.232 0 56.32-25.088 56.32-56.32v-757.76c0-31.232-25.088-56.32-56.32-56.32h-655.36z"  /><path d="M744.448 764.928h-460.8c-14.336 0-25.6-11.264-25.6-25.6s11.264-25.6 25.6-25.6h460.8c14.336 0 25.6 11.264 25.6 25.6s-11.776 25.6-25.6 25.6zM552.96 613.376c-8.704 0-16.384-4.096-20.992-11.264L354.304 338.432l-48.64 128c-5.12 13.312-19.968 19.968-33.28 14.848s-19.968-19.968-14.848-33.28l66.048-174.08c3.584-8.704 11.264-15.36 20.992-16.384 9.728-1.024 18.944 3.072 24.064 11.264l179.2 266.24L631.808 348.16c3.584-7.68 10.752-13.312 19.456-14.848 8.704-1.536 16.896 1.536 23.04 8.192L764.416 440.32c9.728 10.24 8.704 26.624-1.536 36.352-10.24 9.728-26.624 8.704-36.352-1.536l-64-69.632-86.528 193.536c-3.584 8.704-11.776 14.336-20.992 14.848-0.512-0.512-1.536-0.512-2.048-0.512z"  /></svg>